<?xml version="1.0" encoding="utf-8"?>
<!-- Generator: Adobe Illustrator 21.1.0, SVG Export Plug-In . SVG Version: 6.00 Build 0)  -->
<svg version="1.1" id="Ebene_1" xmlns="http://www.w3.org/2000/svg" xmlns:xlink="http://www.w3.org/1999/xlink" x="0px" y="0px"
	 viewBox="0 0 16 16" style="enable-background:new 0 0 16 16;" xml:space="preserve">
<style type="text/css">
	.st0{fill:#EFEFEF;}
	.st1{opacity:0.65;fill:#FFFFFF;enable-background:new    ;}
	.st2{opacity:0.2;enable-background:new    ;}
	.st3{fill:#999999;}
</style>
<path class="st0" d="M2,0v16h12V4l-4-4H2z"/>
<path class="st1" d="M10,4V0l4,4L10,4z"/>
<path class="st2" d="M13,5v5L9,5H13z"/>
<path class="st3" d="M2,0v16h12V4h0l0,0l-4-4l0,0v0H2z M3,1h6v4h4v10H3V1z M10,1.4L12.6,4H10V1.4z"/>
<g>
	<g>
		<path d="M15.8,13.2L12,15.9c-0.2,0.2-0.5,0-0.5-0.3v-5.5c0-0.3,0.3-0.4,0.5-0.3l3.9,2.8C16,12.8,16,13,15.8,13.2z"/>
	</g>
	<g>
		<path d="M3.5,12.6l3.9-2.8C7.6,9.7,8,9.8,8,10.1v5.5c0,0.3-0.3,0.4-0.5,0.3l-3.9-2.8C3.3,13,3.3,12.8,3.5,12.6z"/>
	</g>
	<path d="M10.3,10v5.8c0,0.1-0.2,0.2-0.3,0.2H9.2c-0.2,0-0.3-0.1-0.3-0.2V10c0-0.1,0.2-0.2,0.3-0.2h0.7C10.1,9.8,10.3,9.9,10.3,10z"
		/>
</g>
</svg>
